<svg width="28" height="20" viewBox="0 0 28 20" fill="none" xmlns="http://www.w3.org/2000/svg">
<g clip-path="url(#clip0_14879_35294)">
<rect y="0.101562" width="28" height="19.2" rx="2" fill="#3D3BF5"/>
<rect y="0.101562" width="28" height="19.2" rx="1.6" fill="#3D3BF5"/>
</g>
<path d="M7.66185 10.9058H8.678C8.6509 11.2655 8.55113 11.5845 8.3787 11.8629C8.20626 12.1388 7.96608 12.3555 7.65815 12.5132C7.35023 12.6709 6.97702 12.7497 6.53853 12.7497C6.20105 12.7497 5.89682 12.6906 5.62584 12.5723C5.35733 12.4516 5.12701 12.2804 4.93486 12.0587C4.74518 11.8345 4.59984 11.566 4.49884 11.2532C4.39784 10.9379 4.34734 10.5844 4.34734 10.1927V9.78252C4.34734 9.39084 4.39907 9.03734 4.50253 8.72202C4.606 8.40671 4.7538 8.1382 4.94595 7.91649C5.14055 7.69232 5.37335 7.51988 5.64432 7.39918C5.91776 7.27847 6.22322 7.21812 6.56071 7.21812C6.99919 7.21812 7.36993 7.29941 7.67293 7.46199C7.97593 7.62211 8.21118 7.84259 8.3787 8.12342C8.54621 8.40424 8.64721 8.72695 8.68169 9.09153H7.66554C7.64583 8.8649 7.59657 8.67275 7.51774 8.5151C7.44137 8.35744 7.32559 8.23796 7.1704 8.15667C7.01767 8.07292 6.81444 8.03104 6.56071 8.03104C6.36363 8.03104 6.18996 8.06799 6.0397 8.14189C5.89189 8.21579 5.76872 8.32665 5.67019 8.47445C5.57165 8.61979 5.49775 8.80208 5.44848 9.02133C5.39921 9.23811 5.37458 9.48937 5.37458 9.77513V10.1927C5.37458 10.4661 5.39675 10.7112 5.44109 10.928C5.48543 11.1448 5.55441 11.3283 5.64802 11.4786C5.74162 11.6288 5.86233 11.7434 6.01014 11.8222C6.15794 11.901 6.33407 11.9405 6.53853 11.9405C6.78734 11.9405 6.98934 11.901 7.14453 11.8222C7.30219 11.7434 7.42166 11.6276 7.50296 11.4749C7.58671 11.3221 7.63967 11.1325 7.66185 10.9058ZM9.4318 12.1991C9.4318 12.0513 9.4823 11.9269 9.5833 11.8259C9.6843 11.7249 9.82102 11.6744 9.99345 11.6744C10.1659 11.6744 10.3026 11.7249 10.4036 11.8259C10.5046 11.9269 10.5551 12.0513 10.5551 12.1991C10.5551 12.3445 10.5046 12.4676 10.4036 12.5686C10.3026 12.6672 10.1659 12.7164 9.99345 12.7164C9.82102 12.7164 9.6843 12.6672 9.5833 12.5686C9.4823 12.4676 9.4318 12.3445 9.4318 12.1991ZM13.6849 10.7137H12.2992V9.91554H13.6849C13.9115 9.91554 14.095 9.87859 14.2354 9.80469C14.3783 9.72832 14.483 9.62486 14.5495 9.4943C14.616 9.36128 14.6493 9.20978 14.6493 9.0398C14.6493 8.87475 14.616 8.72079 14.5495 8.57791C14.483 8.43504 14.3783 8.31926 14.2354 8.23057C14.095 8.14189 13.9115 8.09755 13.6849 8.09755H12.6318V12.6758H11.6156V7.29571H13.6849C14.1036 7.29571 14.4608 7.37085 14.7564 7.52111C15.0545 7.66892 15.2811 7.87461 15.4363 8.1382C15.594 8.39932 15.6728 8.69739 15.6728 9.03241C15.6728 9.37975 15.594 9.67905 15.4363 9.93032C15.2811 10.1816 15.0545 10.375 14.7564 10.5105C14.4608 10.6459 14.1036 10.7137 13.6849 10.7137ZM18.555 11.8259V9.98205C18.555 9.84657 18.5316 9.72955 18.4848 9.63102C18.438 9.53248 18.3666 9.45612 18.2705 9.40192C18.1744 9.34773 18.0525 9.32063 17.9047 9.32063C17.7741 9.32063 17.6596 9.3428 17.561 9.38714C17.465 9.43148 17.391 9.4943 17.3393 9.57559C17.2876 9.65442 17.2617 9.74557 17.2617 9.84903H16.2825C16.2825 9.68398 16.3219 9.52755 16.4008 9.37975C16.4796 9.22948 16.5917 9.09646 16.737 8.98068C16.8848 8.86244 17.061 8.77006 17.2654 8.70355C17.4723 8.63704 17.7039 8.60378 17.9601 8.60378C18.2631 8.60378 18.5328 8.65551 18.7693 8.75897C19.0083 8.85997 19.1955 9.0127 19.331 9.21717C19.4689 9.42163 19.5379 9.67905 19.5379 9.98944V11.7335C19.5379 11.9331 19.5502 12.1043 19.5749 12.2471C19.602 12.3876 19.6414 12.5095 19.6931 12.613V12.6758H18.6991C18.6523 12.5748 18.6166 12.4467 18.592 12.2915C18.5673 12.1338 18.555 11.9786 18.555 11.8259ZM18.6917 10.2407L18.6991 10.8208H18.082C17.9293 10.8208 17.795 10.8369 17.6793 10.8689C17.5635 10.8984 17.4686 10.9428 17.3947 11.0019C17.3208 11.0586 17.2654 11.1275 17.2285 11.2088C17.1915 11.2877 17.173 11.3776 17.173 11.4786C17.173 11.5771 17.1952 11.6658 17.2395 11.7446C17.2864 11.8234 17.3529 11.8863 17.4391 11.9331C17.5278 11.9774 17.6312 11.9996 17.7495 11.9996C17.9219 11.9996 18.0722 11.9651 18.2003 11.8961C18.3284 11.8247 18.4281 11.7385 18.4996 11.6375C18.571 11.5365 18.6092 11.4404 18.6141 11.3492L18.895 11.7705C18.8605 11.8715 18.8087 11.9786 18.7398 12.092C18.6708 12.2053 18.5821 12.3112 18.4737 12.4097C18.3653 12.5083 18.2348 12.5896 18.082 12.6536C17.9293 12.7177 17.7519 12.7497 17.5499 12.7497C17.2913 12.7497 17.0597 12.698 16.8553 12.5945C16.6508 12.491 16.4894 12.3494 16.3712 12.1696C16.253 11.9897 16.1938 11.7853 16.1938 11.5562C16.1938 11.3443 16.2332 11.1571 16.3121 10.9945C16.3909 10.8319 16.5079 10.6952 16.6631 10.5844C16.8183 10.471 17.0105 10.3861 17.2395 10.3294C17.4711 10.2703 17.7359 10.2407 18.034 10.2407H18.6917ZM21.5296 12.2324L22.6011 8.67768H23.6469L22.0432 13.2818C22.0062 13.3803 21.9582 13.4875 21.8991 13.6033C21.8424 13.719 21.766 13.8287 21.67 13.9321C21.5739 14.038 21.4532 14.1243 21.3079 14.1908C21.165 14.2573 20.9913 14.2905 20.7868 14.2905C20.6982 14.2905 20.6193 14.2844 20.5504 14.2721C20.4814 14.2597 20.4087 14.2437 20.3323 14.224V13.4924C20.357 13.4949 20.3853 13.4961 20.4173 13.4961C20.4518 13.4986 20.4814 13.4998 20.506 13.4998C20.6489 13.4998 20.7671 13.4825 20.8607 13.4481C20.9544 13.416 21.0295 13.3631 21.0861 13.2892C21.1453 13.2177 21.1945 13.1241 21.234 13.0083L21.5296 12.2324ZM21.0012 8.67768L21.9065 11.6227L22.0654 12.6536L21.3928 12.7755L19.9481 8.67768H21.0012Z" fill="white"/>
<defs>
<clipPath id="clip0_14879_35294">
<rect y="0.101562" width="28" height="19.2" rx="2" fill="white"/>
</clipPath>
</defs>
</svg>
