<svg width="177" height="43" viewBox="0 0 177 43" fill="none" xmlns="http://www.w3.org/2000/svg">
<rect width="177" height="43" rx="9" fill="#133DF1"/>
<path d="M14.9013 13.1201L23.9821 32H20.673L19.0569 28.3061H10.4122L8.79608 32H5.58957L14.6191 13.1201H14.9013ZM13.6187 21.1492L11.5665 25.7152H17.9282L15.9017 21.1748L14.7987 18.584H14.7474L13.6187 21.1492ZM31.2327 32.2565C30.0699 32.2565 29.0181 32.0086 28.0775 31.5126C27.1541 30.9996 26.4187 30.2728 25.8715 29.3322C25.3242 28.3745 25.0506 27.2544 25.0506 25.9718C25.0506 24.7576 25.2986 23.6973 25.7945 22.7909C26.3075 21.8674 27.0173 21.1577 27.9236 20.6618C28.8471 20.1658 29.9074 19.9179 31.1045 19.9179C32.0109 19.9179 32.789 20.0376 33.4388 20.277C34.1058 20.4993 34.6274 20.7815 35.0036 21.1235L33.7723 23.3553C33.054 22.637 32.2417 22.2779 31.3354 22.2779C30.2409 22.2779 29.4029 22.6113 28.8214 23.2783C28.2571 23.9453 27.9749 24.8345 27.9749 25.9461C27.9749 27.2116 28.2657 28.1949 28.8471 28.8961C29.4457 29.5973 30.2751 29.9478 31.3354 29.9478C31.8655 29.9478 32.3785 29.8709 32.8745 29.717C33.3875 29.5631 33.7808 29.3835 34.0545 29.1783L35.0549 31.1278C34.6787 31.4186 34.1485 31.6836 33.4645 31.923C32.7975 32.1454 32.0536 32.2565 31.2327 32.2565ZM43.5116 32.2565C42.4513 32.2565 41.468 32.0086 40.5616 31.5126C39.6723 30.9996 38.9541 30.2813 38.4068 29.3578C37.8767 28.4173 37.6116 27.3228 37.6116 26.0744C37.6116 24.8431 37.8425 23.7657 38.3042 22.8422C38.7831 21.9187 39.4586 21.2005 40.3307 20.6874C41.2029 20.1744 42.229 19.9179 43.409 19.9179C44.093 19.9179 44.7343 20.0376 45.3329 20.277C45.9314 20.5164 46.4359 20.8157 46.8464 21.1748C47.2568 21.5169 47.5304 21.8589 47.6672 22.2009L47.7185 20.2257H50.3607V32H47.7442L47.6929 29.9222C47.4022 30.5378 46.872 31.0851 46.1025 31.5639C45.3329 32.0257 44.4693 32.2565 43.5116 32.2565ZM43.9733 29.9478C44.9481 29.9478 45.769 29.6144 46.4359 28.9474C47.1029 28.2633 47.4364 27.3741 47.4364 26.2796V26.1C47.4364 25.3647 47.2825 24.7063 46.9746 24.1248C46.6668 23.5434 46.2478 23.0902 45.7177 22.7653C45.1875 22.4403 44.6061 22.2779 43.9733 22.2779C42.8788 22.2779 42.0323 22.637 41.4338 23.3553C40.8352 24.0564 40.536 24.9713 40.536 26.1C40.536 27.2458 40.8267 28.1778 41.4081 28.8961C42.0067 29.5973 42.8617 29.9478 43.9733 29.9478ZM59.9054 32.2565C58.8451 32.2565 57.8618 32.0086 56.9554 31.5126C56.0661 30.9996 55.3479 30.2813 54.8006 29.3578C54.2705 28.4173 54.0054 27.3228 54.0054 26.0744C54.0054 24.2103 54.527 22.7225 55.5702 21.6109C56.6134 20.4822 58.0242 19.9179 59.8028 19.9179C60.7947 19.9179 61.701 20.1658 62.5219 20.6618C63.3428 21.1406 63.8986 21.7221 64.1893 22.4061L64.061 20.4053V13.1457H66.7802V32H64.138L64.0867 29.9222C63.796 30.5378 63.2658 31.0851 62.4963 31.5639C61.7267 32.0257 60.8631 32.2565 59.9054 32.2565ZM60.3671 29.9222C61.3419 29.9222 62.1628 29.5887 62.8297 28.9218C63.4967 28.2377 63.8302 27.3484 63.8302 26.2539V26.0744C63.8302 25.339 63.6763 24.6806 63.3684 24.0992C63.0606 23.5177 62.6416 23.0645 62.1115 22.7396C61.5813 22.4147 60.9999 22.2522 60.3671 22.2522C59.2727 22.2522 58.4261 22.6113 57.8276 23.3296C57.229 24.0308 56.9298 24.9457 56.9298 26.0744C56.9298 27.2202 57.2205 28.1522 57.8019 28.8704C58.4005 29.5716 59.2555 29.9222 60.3671 29.9222ZM76.6333 32.2565C75.231 32.2565 74.0595 31.9829 73.1189 31.4357C72.1784 30.8713 71.4858 30.1274 71.0411 29.2039C70.5965 28.2633 70.3742 27.2373 70.3742 26.1257C70.3742 24.8773 70.6307 23.7828 71.1437 22.8422C71.6739 21.9016 72.4007 21.1834 73.3242 20.6874C74.2476 20.1744 75.2908 19.9179 76.4537 19.9179C78.2665 19.9179 79.6089 20.4224 80.4811 21.4313C81.3704 22.4232 81.815 23.8255 81.815 25.6383C81.815 26.1 81.7893 26.5789 81.738 27.0748H73.2729C73.461 28.118 73.8287 28.8704 74.3759 29.3322C74.9402 29.7939 75.7184 30.0248 76.7102 30.0248C77.5311 30.0248 78.2066 29.9564 78.7368 29.8196C79.2669 29.6828 79.7543 29.4946 80.1989 29.2552L81.0454 31.2304C80.6179 31.5041 80.0365 31.7435 79.3011 31.9487C78.5657 32.1539 77.6765 32.2565 76.6333 32.2565ZM79.1215 25.1509C79.1386 24.0906 78.9078 23.3467 78.4289 22.9192C77.9501 22.4745 77.266 22.2522 76.3768 22.2522C74.5811 22.2522 73.5465 23.2184 73.2729 25.1509H79.1215ZM85.3313 20.2257H88.1017V22.3548C88.4779 21.5511 89.0252 20.944 89.7434 20.5335C90.4788 20.1231 91.3167 19.9179 92.2573 19.9179C94.3608 19.935 95.6519 20.6618 96.1308 22.0983C96.507 21.4313 97.0714 20.9012 97.8238 20.5079C98.5763 20.1145 99.3715 19.9179 100.209 19.9179C101.441 19.9179 102.373 20.1573 103.006 20.6361C103.638 21.0979 104.057 21.7648 104.262 22.637C104.485 23.4921 104.596 24.6464 104.596 26.1V32H101.8V26.0744C101.8 24.6892 101.655 23.6973 101.364 23.0987C101.09 22.5002 100.551 22.2009 99.7477 22.2009C98.6703 22.2009 97.8495 22.5686 97.2851 23.304C96.7379 24.0222 96.4643 24.9713 96.4643 26.1513V32H93.6938V25.6639C93.6938 24.7576 93.6596 24.0821 93.5912 23.6374C93.5228 23.1928 93.3347 22.8422 93.0269 22.5857C92.7191 22.3292 92.2231 22.2009 91.5391 22.2009C90.9405 22.2009 90.3762 22.3805 89.846 22.7396C89.333 23.0987 88.914 23.5861 88.5891 24.2018C88.2813 24.8003 88.1273 25.4502 88.1273 26.1513V32H85.3313V20.2257ZM112.125 32.3591L107.251 20.2257H110.381L112.895 27.7161L113.459 29.5374L114.024 27.7161L116.666 20.2257H119.693L112.459 38.4643H109.586L112.125 32.3591ZM122.472 32.2565C121.959 32.2565 121.523 32.0855 121.164 31.7435C120.805 31.3844 120.625 30.9483 120.625 30.4352C120.625 29.9051 120.796 29.469 121.138 29.127C121.497 28.7678 121.942 28.5883 122.472 28.5883C123.002 28.5883 123.438 28.7678 123.78 29.127C124.139 29.469 124.319 29.9051 124.319 30.4352C124.319 30.9483 124.139 31.3844 123.78 31.7435C123.438 32.0855 123.002 32.2565 122.472 32.2565ZM128.83 13.1457H132.986C135.329 13.1457 137.039 13.6502 138.116 14.6592C139.211 15.6511 139.758 17.0192 139.758 18.7635C139.758 20.7815 139.168 22.3292 137.988 23.4066C136.808 24.4839 135.055 25.0226 132.729 25.0226H131.729V32H128.83V13.1457ZM132.806 22.4831C134.311 22.4831 135.363 22.1496 135.962 21.4827C136.56 20.8157 136.859 20.0119 136.859 19.0714C136.859 18.0624 136.569 17.2415 135.987 16.6088C135.406 15.976 134.431 15.6596 133.063 15.6596H131.729V22.4831H132.806ZM148.073 32.2565C147.012 32.2565 146.029 32.0086 145.123 31.5126C144.233 30.9996 143.515 30.2813 142.968 29.3578C142.438 28.4173 142.173 27.3228 142.173 26.0744C142.173 24.8431 142.403 23.7657 142.865 22.8422C143.344 21.9187 144.02 21.2005 144.892 20.6874C145.764 20.1744 146.79 19.9179 147.97 19.9179C148.654 19.9179 149.295 20.0376 149.894 20.277C150.492 20.5164 150.997 20.8157 151.407 21.1748C151.818 21.5169 152.091 21.8589 152.228 22.2009L152.279 20.2257H154.922V32H152.305L152.254 29.9222C151.963 30.5378 151.433 31.0851 150.663 31.5639C149.894 32.0257 149.03 32.2565 148.073 32.2565ZM148.534 29.9478C149.509 29.9478 150.33 29.6144 150.997 28.9474C151.664 28.2633 151.997 27.3741 151.997 26.2796V26.1C151.997 25.3647 151.843 24.7063 151.536 24.1248C151.228 23.5434 150.809 23.0902 150.279 22.7653C149.748 22.4403 149.167 22.2779 148.534 22.2779C147.44 22.2779 146.593 22.637 145.995 23.3553C145.396 24.0564 145.097 24.9713 145.097 26.1C145.097 27.2458 145.388 28.1778 145.969 28.8961C146.568 29.5973 147.423 29.9478 148.534 29.9478ZM162.645 32.3591L157.771 20.2257H160.901L163.415 27.7161L163.979 29.5374L164.543 27.7161L167.185 20.2257H170.212L162.979 38.4643H160.105L162.645 32.3591Z" fill="white"/>
<path d="M14.9013 13.1201L15.1769 12.9875L15.0936 12.8142H14.9013V13.1201ZM23.9821 32V32.3059H24.4687L24.2578 31.8674L23.9821 32ZM20.673 32L20.3927 32.1226L20.4729 32.3059H20.673V32ZM19.0569 28.3061L19.3371 28.1835L19.257 28.0002H19.0569V28.3061ZM10.4122 28.3061V28.0002H10.2121L10.1319 28.1835L10.4122 28.3061ZM8.79608 32V32.3059H8.99613L9.07632 32.1226L8.79608 32ZM5.58957 32L5.31362 31.868L5.1042 32.3059H5.58957V32ZM14.6191 13.1201V12.8142H14.4263L14.3431 12.9881L14.6191 13.1201ZM13.6187 21.1492L13.8977 21.2746L13.8986 21.2724L13.6187 21.1492ZM11.5665 25.7152L11.2875 25.5898L11.0937 26.0211H11.5665V25.7152ZM17.9282 25.7152V26.0211H18.3997L18.2075 25.5906L17.9282 25.7152ZM15.9017 21.1748L15.6202 21.2947L15.6224 21.2995L15.9017 21.1748ZM14.7987 18.584L15.0801 18.4641L15.0009 18.2781H14.7987V18.584ZM14.7474 18.584V18.2781H14.5478L14.4674 18.4608L14.7474 18.584ZM14.6256 13.2527L23.7064 32.1326L24.2578 31.8674L15.1769 12.9875L14.6256 13.2527ZM23.9821 31.6941H20.673V32.3059H23.9821V31.6941ZM20.9532 31.8774L19.3371 28.1835L18.7767 28.4287L20.3927 32.1226L20.9532 31.8774ZM19.0569 28.0002H10.4122V28.612H19.0569V28.0002ZM10.1319 28.1835L8.51583 31.8774L9.07632 32.1226L10.6924 28.4287L10.1319 28.1835ZM8.79608 31.6941H5.58957V32.3059H8.79608V31.6941ZM5.86552 32.132L14.895 13.2521L14.3431 12.9881L5.31362 31.868L5.86552 32.132ZM14.6191 13.426H14.9013V12.8142H14.6191V13.426ZM13.3397 21.0238L11.2875 25.5898L11.8455 25.8406L13.8977 21.2746L13.3397 21.0238ZM11.5665 26.0211H17.9282V25.4094H11.5665V26.0211ZM18.2075 25.5906L16.181 21.0502L15.6224 21.2995L17.6489 25.8399L18.2075 25.5906ZM16.1831 21.055L15.0801 18.4641L14.5172 18.7038L15.6203 21.2947L16.1831 21.055ZM14.7987 18.2781H14.7474V18.8899H14.7987V18.2781ZM14.4674 18.4608L13.3387 21.026L13.8986 21.2724L15.0273 18.7072L14.4674 18.4608ZM28.0775 31.5126L27.929 31.7801L27.9349 31.7832L28.0775 31.5126ZM25.8715 29.3322L25.6059 29.484L25.6071 29.486L25.8715 29.3322ZM25.7945 22.7909L25.5271 22.6424L25.5262 22.6441L25.7945 22.7909ZM27.9236 20.6618L27.7789 20.3923L27.7768 20.3934L27.9236 20.6618ZM33.4388 20.277L33.333 20.5642L33.3421 20.5672L33.4388 20.277ZM35.0036 21.1235L35.2714 21.2713L35.3882 21.0597L35.2094 20.8972L35.0036 21.1235ZM33.7723 23.3553L33.556 23.5715L33.8436 23.8592L34.0401 23.503L33.7723 23.3553ZM28.8214 23.2783L28.5909 23.0773L28.5879 23.0807L28.8214 23.2783ZM28.8471 28.8961L28.6116 29.0914L28.6145 29.0947L28.8471 28.8961ZM32.8745 29.717L32.7866 29.424L32.7838 29.4248L32.8745 29.717ZM34.0545 29.1783L34.3266 29.0386L34.1611 28.716L33.8709 28.9336L34.0545 29.1783ZM35.0549 31.1278L35.2419 31.3699L35.4431 31.2144L35.327 30.9882L35.0549 31.1278ZM33.4645 31.923L33.5612 32.2133L33.5655 32.2118L33.4645 31.923ZM31.2327 31.9506C30.1148 31.9506 29.1128 31.7127 28.2202 31.242L27.9349 31.7832C28.9234 32.3044 30.0249 32.5624 31.2327 32.5624V31.9506ZM28.2261 31.2452C27.3522 30.7597 26.6563 30.0728 26.1359 29.1784L25.6071 29.486C26.1811 30.4727 26.9559 31.2394 27.929 31.78L28.2261 31.2452ZM26.137 29.1804C25.6202 28.276 25.3565 27.2099 25.3565 25.9718H24.7447C24.7447 27.2988 25.0282 28.473 25.6059 29.4839L26.137 29.1804ZM25.3565 25.9718C25.3565 24.7999 25.5955 23.7918 26.0628 22.9377L25.5262 22.6441C25.0016 23.6028 24.7447 24.7153 24.7447 25.9718H25.3565ZM26.0619 22.9395C26.5475 22.0653 27.216 21.3977 28.0705 20.9301L27.7768 20.3934C26.8185 20.9178 26.0676 21.6696 25.5271 22.6424L26.0619 22.9395ZM28.0684 20.9313C28.9414 20.4624 29.9506 20.2238 31.1045 20.2238V19.612C29.8641 19.612 28.7528 19.8693 27.7789 20.3923L28.0684 20.9313ZM31.1045 20.2238C31.9853 20.2238 32.7257 20.3403 33.3331 20.564L33.5446 19.99C32.8522 19.7349 32.0364 19.612 31.1045 19.612V20.2238ZM33.3421 20.5672C33.9831 20.7809 34.4627 21.0452 34.7978 21.3499L35.2094 20.8972C34.792 20.5178 34.2284 20.2178 33.5356 19.9868L33.3421 20.5672ZM34.7358 20.9758L33.5045 23.2075L34.0401 23.503L35.2714 21.2713L34.7358 20.9758ZM33.9886 23.139C33.2205 22.3709 32.333 21.972 31.3354 21.972V22.5838C32.1505 22.5838 32.8875 22.9031 33.556 23.5715L33.9886 23.139ZM31.3354 21.972C30.1752 21.972 29.2438 22.3283 28.5909 23.0773L29.052 23.4793C29.562 22.8944 30.3066 22.5838 31.3354 22.5838V21.972ZM28.5879 23.0807C27.9653 23.8166 27.669 24.7824 27.669 25.9461H28.2808C28.2808 24.8867 28.5489 24.0739 29.055 23.4759L28.5879 23.0807ZM27.669 25.9461C27.669 27.2554 27.9698 28.3173 28.6116 29.0914L29.0826 28.7008C28.5615 28.0726 28.2808 27.1678 28.2808 25.9461H27.669ZM28.6145 29.0947C29.2802 29.8745 30.2005 30.2537 31.3354 30.2537V29.6419C30.3496 29.6419 29.6111 29.32 29.0797 28.6975L28.6145 29.0947ZM31.3354 30.2537C31.8956 30.2537 32.4392 30.1723 32.9651 30.0091L32.7838 29.4248C32.3178 29.5694 31.8354 29.6419 31.3354 29.6419V30.2537ZM32.9624 30.01C33.4926 29.8509 33.924 29.6585 34.238 29.423L33.8709 28.9336C33.6377 29.1085 33.2824 29.2752 32.7866 29.424L32.9624 30.01ZM33.7823 29.3179L34.7828 31.2675L35.327 30.9882L34.3266 29.0386L33.7823 29.3179ZM34.8679 30.8858C34.5275 31.1488 34.031 31.4007 33.3634 31.6343L33.5655 32.2118C34.2661 31.9666 34.8299 31.6883 35.2419 31.3699L34.8679 30.8858ZM33.3677 31.6329C32.7367 31.8432 32.0261 31.9506 31.2327 31.9506V32.5624C32.0811 32.5624 32.8583 32.4475 33.5612 32.2132L33.3677 31.6329ZM40.5616 31.5126L40.4087 31.7776L40.4148 31.781L40.5616 31.5126ZM38.4068 29.3578L38.1403 29.5081L38.1437 29.5138L38.4068 29.3578ZM38.3042 22.8422L38.0326 22.7014L38.0306 22.7054L38.3042 22.8422ZM45.3329 20.277L45.4465 19.993L45.4465 19.993L45.3329 20.277ZM46.8464 21.1748L46.6449 21.4051L46.6505 21.4098L46.8464 21.1748ZM47.6672 22.2009L47.3832 22.3145L47.973 22.2089L47.6672 22.2009ZM47.7185 20.2257V19.9198H47.4205L47.4128 20.2178L47.7185 20.2257ZM50.3607 20.2257H50.6666V19.9198H50.3607V20.2257ZM50.3607 32V32.3059H50.6666V32H50.3607ZM47.7442 32L47.4384 32.0076L47.4458 32.3059H47.7442V32ZM47.6929 29.9222L47.9987 29.9146L47.4163 29.7916L47.6929 29.9222ZM46.1025 31.5639L46.2599 31.8262L46.2641 31.8236L46.1025 31.5639ZM46.4359 28.9474L46.6522 29.1637L46.6549 29.1609L46.4359 28.9474ZM46.9746 24.1248L46.7043 24.2679L46.7043 24.2679L46.9746 24.1248ZM45.7177 22.7653L45.5578 23.0261L45.5578 23.0261L45.7177 22.7653ZM41.4338 23.3553L41.6664 23.5539L41.6688 23.5511L41.4338 23.3553ZM41.4081 28.8961L41.1703 29.0886L41.1755 29.0947L41.4081 28.8961ZM43.5116 31.9506C42.5012 31.9506 41.5686 31.7149 40.7084 31.2443L40.4148 31.781C41.3674 32.3022 42.4014 32.5624 43.5116 32.5624V31.9506ZM40.7145 31.2477C39.8728 30.7621 39.1917 30.0823 38.67 29.2019L38.1437 29.5138C38.7164 30.4803 39.4719 31.237 40.4088 31.7776L40.7145 31.2477ZM38.6733 29.2076C38.1728 28.3196 37.9175 27.2785 37.9175 26.0744H37.3057C37.3057 27.3671 37.5806 28.5149 38.1404 29.508L38.6733 29.2076ZM37.9175 26.0744C37.9175 24.8815 38.141 23.8526 38.5778 22.979L38.0306 22.7054C37.5439 23.6788 37.3057 24.8047 37.3057 26.0744H37.9175ZM38.5758 22.983C39.0289 22.1091 39.6647 21.4341 40.4858 20.9511L40.1757 20.4238C39.2524 20.9669 38.5372 21.7284 38.0327 22.7014L38.5758 22.983ZM40.4858 20.9511C41.3037 20.47 42.2744 20.2238 43.409 20.2238V19.612C42.1836 19.612 41.1021 19.8788 40.1757 20.4238L40.4858 20.9511ZM43.409 20.2238C44.0565 20.2238 44.659 20.3369 45.2193 20.561L45.4465 19.993C44.8096 19.7383 44.1296 19.612 43.409 19.612V20.2238ZM45.2193 20.561C45.7914 20.7899 46.2648 21.0724 46.6449 21.405L47.0478 20.9446C46.6071 20.559 46.0714 20.243 45.4465 19.993L45.2193 20.561ZM46.6505 21.4098C47.0383 21.733 47.2719 22.0361 47.3832 22.3145L47.9512 22.0873C47.789 21.6817 47.4753 21.3007 47.0422 20.9398L46.6505 21.4098ZM47.973 22.2089L48.0243 20.2336L47.4128 20.2178L47.3614 22.193L47.973 22.2089ZM47.7185 20.5316H50.3607V19.9198H47.7185V20.5316ZM50.0548 20.2257V32H50.6666V20.2257H50.0548ZM50.3607 31.6941H47.7442V32.3059H50.3607V31.6941ZM48.05 31.9924L47.9987 29.9146L47.3871 29.9297L47.4384 32.0076L48.05 31.9924ZM47.4163 29.7916C47.1577 30.3391 46.6766 30.8464 45.9409 31.3042L46.2641 31.8236C47.0674 31.3238 47.6466 30.7366 47.9695 30.0528L47.4163 29.7916ZM45.9451 31.3016C45.2263 31.7329 44.4177 31.9506 43.5116 31.9506V32.5624C44.5208 32.5624 45.4395 32.3184 46.2598 31.8262L45.9451 31.3016ZM43.9733 30.2537C45.0262 30.2537 45.9258 29.8901 46.6522 29.1637L46.2196 28.7311C45.6122 29.3386 44.87 29.6419 43.9733 29.6419V30.2537ZM46.6549 29.1609C47.3858 28.4114 47.7422 27.4413 47.7422 26.2796H47.1305C47.1305 27.3069 46.82 28.1153 46.2169 28.7339L46.6549 29.1609ZM47.7422 26.2796V26.1H47.1305V26.2796H47.7422ZM47.7422 26.1C47.7422 25.3207 47.5788 24.6122 47.245 23.9817L46.7043 24.2679C46.9861 24.8003 47.1305 25.4086 47.1305 26.1H47.7422ZM47.245 23.9817C46.9131 23.3548 46.4571 22.8597 45.8775 22.5045L45.5578 23.0261C46.0385 23.3207 46.4205 23.732 46.7043 24.2679L47.245 23.9817ZM45.8775 22.5045C45.2984 22.1495 44.6615 21.972 43.9733 21.972V22.5838C44.5507 22.5838 45.0767 22.7312 45.5578 23.0261L45.8775 22.5045ZM43.9733 21.972C42.8053 21.972 41.8656 22.3592 41.1988 23.1594L41.6688 23.5511C42.199 22.9148 42.9524 22.5838 43.9733 22.5838V21.972ZM41.2011 23.1567C40.5454 23.9249 40.2301 24.9155 40.2301 26.1H40.8418C40.8418 25.0272 41.1251 24.188 41.6664 23.5539L41.2011 23.1567ZM40.2301 26.1C40.2301 27.2986 40.5351 28.3038 41.1704 29.0886L41.6459 28.7036C41.1183 28.0519 40.8418 27.193 40.8418 26.1H40.2301ZM41.1755 29.0947C41.8441 29.8779 42.7924 30.2537 43.9733 30.2537V29.6419C42.9311 29.6419 42.1693 29.3166 41.6408 28.6975L41.1755 29.0947ZM56.9554 31.5126L56.8025 31.7776L56.8086 31.781L56.9554 31.5126ZM54.8006 29.3578L54.5341 29.5081L54.5375 29.5138L54.8006 29.3578ZM55.5702 21.6109L55.7933 21.8202L55.7948 21.8185L55.5702 21.6109ZM62.5219 20.6618L62.3637 20.9236L62.3678 20.926L62.5219 20.6618ZM64.1893 22.4061L63.9078 22.5258L64.4946 22.3866L64.1893 22.4061ZM64.061 20.4053H63.7551V20.4151L63.7558 20.4248L64.061 20.4053ZM64.061 13.1457V12.8398H63.7551V13.1457H64.061ZM66.7802 13.1457H67.086V12.8398H66.7802V13.1457ZM66.7802 32V32.3059H67.086V32H66.7802ZM64.138 32L63.8322 32.0076L63.8396 32.3059H64.138V32ZM64.0867 29.9222L64.3925 29.9146L63.8101 29.7916L64.0867 29.9222ZM62.4963 31.5639L62.6537 31.8262L62.6579 31.8236L62.4963 31.5639ZM62.8297 28.9218L63.046 29.1381L63.0488 29.1353L62.8297 28.9218ZM63.3684 24.0992L63.0981 24.2423L63.0981 24.2423L63.3684 24.0992ZM62.1115 22.7396L62.2713 22.4788L62.2713 22.4788L62.1115 22.7396ZM57.8276 23.3296L58.0602 23.5282L58.0626 23.5254L57.8276 23.3296ZM57.8019 28.8704L57.5641 29.063L57.5693 29.069L57.8019 28.8704ZM59.9054 31.9506C58.895 31.9506 57.9624 31.7149 57.1022 31.2443L56.8086 31.781C57.7612 32.3022 58.7952 32.5624 59.9054 32.5624V31.9506ZM57.1083 31.2477C56.2666 30.7621 55.5855 30.0823 55.0638 29.2019L54.5375 29.5138C55.1103 30.4803 55.8657 31.237 56.8026 31.7776L57.1083 31.2477ZM55.0671 29.2076C54.5666 28.3196 54.3113 27.2785 54.3113 26.0744H53.6995C53.6995 27.3671 53.9744 28.5149 54.5342 29.508L55.0671 29.2076ZM54.3113 26.0744C54.3113 24.2698 54.8146 22.8631 55.7933 21.8202L55.3472 21.4016C54.2395 22.5819 53.6995 24.1508 53.6995 26.0744H54.3113ZM55.7948 21.8185C56.7708 20.7625 58.0949 20.2238 59.8028 20.2238V19.612C57.9536 19.612 56.4559 20.2019 55.3456 21.4033L55.7948 21.8185ZM59.8028 20.2238C60.7409 20.2238 61.5923 20.4575 62.3637 20.9236L62.6801 20.4C61.8098 19.8742 60.8484 19.612 59.8028 19.612V20.2238ZM62.3678 20.926C63.1477 21.3809 63.6492 21.9174 63.9078 22.5258L64.4708 22.2865C64.1479 21.5267 63.5379 20.9003 62.676 20.3976L62.3678 20.926ZM64.4946 22.3866L64.3663 20.3857L63.7558 20.4248L63.884 22.4257L64.4946 22.3866ZM64.3669 20.4053V13.1457H63.7551V20.4053H64.3669ZM64.061 13.4516H66.7802V12.8398H64.061V13.4516ZM66.4743 13.1457V32H67.086V13.1457H66.4743ZM66.7802 31.6941H64.138V32.3059H66.7802V31.6941ZM64.4438 31.9924L64.3925 29.9146L63.7809 29.9297L63.8322 32.0076L64.4438 31.9924ZM63.8101 29.7916C63.5515 30.3391 63.0704 30.8464 62.3347 31.3042L62.6579 31.8236C63.4612 31.3238 64.0404 30.7366 64.3633 30.0528L63.8101 29.7916ZM62.3389 31.3016C61.6201 31.7329 60.8115 31.9506 59.9054 31.9506V32.5624C60.9147 32.5624 61.8333 32.3184 62.6536 31.8262L62.3389 31.3016ZM60.3671 30.2281C61.42 30.2281 62.3196 29.8645 63.046 29.138L62.6134 28.7055C62.006 29.3129 61.2638 29.6163 60.3671 29.6163V30.2281ZM63.0488 29.1353C63.7796 28.3857 64.1361 27.4156 64.1361 26.2539H63.5243C63.5243 27.2812 63.2138 28.0897 62.6107 28.7082L63.0488 29.1353ZM64.1361 26.2539V26.0744H63.5243V26.2539H64.1361ZM64.1361 26.0744C64.1361 25.2951 63.9726 24.5866 63.6388 23.956L63.0981 24.2423C63.3799 24.7747 63.5243 25.3829 63.5243 26.0744H64.1361ZM63.6388 23.956C63.3069 23.3291 62.8509 22.834 62.2713 22.4788L61.9516 23.0004C62.4323 23.295 62.8143 23.7063 63.0981 24.2423L63.6388 23.956ZM62.2713 22.4788C61.6922 22.1239 61.0553 21.9463 60.3671 21.9463V22.5581C60.9445 22.5581 61.4705 22.7055 61.9516 23.0004L62.2713 22.4788ZM60.3671 21.9463C59.1991 21.9463 58.2595 22.3336 57.5926 23.1338L58.0626 23.5254C58.5928 22.8891 59.3462 22.5581 60.3671 22.5581V21.9463ZM57.5949 23.131C56.9392 23.8992 56.6239 24.8898 56.6239 26.0744H57.2356C57.2356 25.0015 57.5189 24.1623 58.0602 23.5282L57.5949 23.131ZM56.6239 26.0744C56.6239 27.273 56.9289 28.2781 57.5642 29.0629L58.0397 28.678C57.5121 28.0262 57.2356 27.1674 57.2356 26.0744H56.6239ZM57.5693 29.069C58.2379 29.8523 59.1862 30.2281 60.3671 30.2281V29.6163C59.3249 29.6163 58.5631 29.2909 58.0346 28.6718L57.5693 29.069ZM73.1189 31.4357L72.9616 31.698L72.9651 31.7L73.1189 31.4357ZM71.0411 29.2039L70.7646 29.3347L70.7655 29.3366L71.0411 29.2039ZM71.1437 22.8422L70.8772 22.692L70.8752 22.6957L71.1437 22.8422ZM73.3242 20.6874L73.4689 20.957L73.4727 20.9548L73.3242 20.6874ZM80.4811 21.4313L80.2496 21.6314L80.2533 21.6355L80.4811 21.4313ZM81.738 27.0748V27.3807H82.0139L82.0423 27.1063L81.738 27.0748ZM73.2729 27.0748V26.7689H72.9069L72.9718 27.1291L73.2729 27.0748ZM74.3759 29.3322L74.1786 29.566L74.1822 29.5689L74.3759 29.3322ZM78.7368 29.8196L78.6603 29.5234L78.7368 29.8196ZM80.1989 29.2552L80.4801 29.1347L80.3483 28.8274L80.0539 28.9859L80.1989 29.2552ZM81.0454 31.2304L81.2103 31.4881L81.4287 31.3483L81.3266 31.1099L81.0454 31.2304ZM79.3011 31.9487L79.2189 31.6541L79.3011 31.9487ZM79.1215 25.1509V25.4568H79.4225L79.4274 25.1558L79.1215 25.1509ZM78.4289 22.9192L78.2207 23.1434L78.2252 23.1473L78.4289 22.9192ZM73.2729 25.1509L72.97 25.108L72.9206 25.4568H73.2729V25.1509ZM76.6333 31.9506C75.2697 31.9506 74.155 31.6846 73.2728 31.1713L72.9651 31.7C73.964 32.2812 75.1922 32.5624 76.6333 32.5624V31.9506ZM73.2763 31.1734C72.3832 30.6375 71.7336 29.9371 71.3167 29.0712L70.7655 29.3366C71.2379 30.3177 71.9735 31.1051 72.9616 31.698L73.2763 31.1734ZM71.3177 29.0732C70.8937 28.1763 70.6801 27.1952 70.6801 26.1257H70.0683C70.0683 27.2793 70.2993 28.3504 70.7646 29.3347L71.3177 29.0732ZM70.6801 26.1257C70.6801 24.92 70.9275 23.8774 71.4123 22.9887L70.8752 22.6957C70.3339 23.6882 70.0683 24.8346 70.0683 26.1257H70.6801ZM71.4102 22.9924C71.9128 22.1007 72.5981 21.4246 73.4689 20.9569L73.1794 20.418C72.2033 20.9422 71.435 21.7025 70.8773 22.692L71.4102 22.9924ZM73.4727 20.9548C74.3463 20.4695 75.3374 20.2238 76.4537 20.2238V19.612C75.2442 19.612 74.149 19.8793 73.1756 20.42L73.4727 20.9548ZM76.4537 20.2238C78.2111 20.2238 79.4544 20.7114 80.2497 21.6314L80.7125 21.2313C79.7634 20.1333 78.3218 19.612 76.4537 19.612V20.2238ZM80.2533 21.6355C81.0766 22.5538 81.5091 23.8735 81.5091 25.6383H82.1209C82.1209 23.7776 81.6641 22.2927 80.7088 21.2272L80.2533 21.6355ZM81.5091 25.6383C81.5091 26.0887 81.4841 26.557 81.4338 27.0433L82.0423 27.1063C82.0946 26.6007 82.1209 26.1113 82.1209 25.6383H81.5091ZM81.738 26.7689H73.2729V27.3807H81.738V26.7689ZM72.9718 27.1291C73.1667 28.2098 73.5561 29.0407 74.1786 29.566L74.5732 29.0984C74.1012 28.7002 73.7552 28.0262 73.5739 27.0205L72.9718 27.1291ZM74.1822 29.5689C74.818 30.0892 75.6731 30.3307 76.7102 30.3307V29.7189C75.7636 29.7189 75.0624 29.4987 74.5696 29.0954L74.1822 29.5689ZM76.7102 30.3307C77.5454 30.3307 78.249 30.2614 78.8132 30.1158L78.6603 29.5234C78.1642 29.6514 77.5168 29.7189 76.7102 29.7189V30.3307ZM78.8132 30.1158C79.3652 29.9733 79.8759 29.7766 80.3439 29.5246L80.0539 28.9859C79.6327 29.2127 79.1686 29.3922 78.6603 29.5234L78.8132 30.1158ZM79.9178 29.3757L80.7643 31.3509L81.3266 31.1099L80.4801 29.1347L79.9178 29.3757ZM80.8805 30.9728C80.488 31.224 79.9382 31.4533 79.2189 31.6541L79.3833 32.2433C80.1347 32.0336 80.7478 31.7841 81.2103 31.4881L80.8805 30.9728ZM79.2189 31.6541C78.518 31.8496 77.6581 31.9506 76.6333 31.9506V32.5624C77.6949 32.5624 78.6134 32.4582 79.3833 32.2433L79.2189 31.6541ZM79.4274 25.1558C79.445 24.063 79.2106 23.207 78.6327 22.691L78.2252 23.1473C78.605 23.4864 78.8323 24.1183 78.8157 25.146L79.4274 25.1558ZM78.6371 22.695C78.0839 22.1813 77.315 21.9463 76.3768 21.9463V22.5581C77.2171 22.5581 77.8163 22.7677 78.2208 23.1433L78.6371 22.695ZM76.3768 21.9463C75.4231 21.9463 74.6333 22.2042 74.0453 22.7533C73.4605 23.2994 73.1129 24.0985 72.97 25.108L73.5757 25.1938C73.7064 24.2708 74.0129 23.6206 74.4628 23.2004C74.9094 22.7834 75.5348 22.5581 76.3768 22.5581V21.9463ZM73.2729 25.4568H79.1215V24.845H73.2729V25.4568ZM85.3313 20.2257V19.9198H85.0254V20.2257H85.3313ZM88.1017 20.2257H88.4076V19.9198H88.1017V20.2257ZM88.1017 22.3548H87.7958L88.3787 22.4845L88.1017 22.3548ZM89.7434 20.5335L89.5943 20.2664L89.5917 20.2679L89.7434 20.5335ZM92.2573 19.9179L92.2598 19.612H92.2573V19.9179ZM96.1308 22.0983L95.8406 22.195L96.0586 22.8489L96.3972 22.2486L96.1308 22.0983ZM103.006 20.6361L102.821 20.8801L102.825 20.8832L103.006 20.6361ZM104.262 22.637L103.965 22.7071L103.966 22.714L104.262 22.637ZM104.596 32V32.3059H104.902V32H104.596ZM101.8 32H101.494V32.3059H101.8V32ZM101.364 23.0987L101.086 23.2259L101.089 23.2324L101.364 23.0987ZM97.2851 23.304L97.0425 23.1177L97.0418 23.1186L97.2851 23.304ZM96.4643 32V32.3059H96.7702V32H96.4643ZM93.6938 32H93.388V32.3059H93.6938V32ZM93.5912 23.6374L93.2889 23.6839L93.2889 23.6839L93.5912 23.6374ZM93.0269 22.5857L92.8311 22.8207L92.8311 22.8207L93.0269 22.5857ZM89.846 22.7396L89.6745 22.4863L89.6706 22.489L89.846 22.7396ZM88.5891 24.2018L88.3185 24.059L88.3171 24.0619L88.5891 24.2018ZM88.1273 32V32.3059H88.4332V32H88.1273ZM85.3313 32H85.0254V32.3059H85.3313V32ZM85.3313 20.5316H88.1017V19.9198H85.3313V20.5316ZM87.7958 20.2257V22.3548H88.4076V20.2257H87.7958ZM88.3787 22.4845C88.7303 21.7335 89.2358 21.1759 89.8952 20.7991L89.5917 20.2679C88.8146 20.712 88.2256 21.3686 87.8247 22.2251L88.3787 22.4845ZM89.8925 20.8006C90.5772 20.4185 91.3627 20.2238 92.2573 20.2238V19.612C91.2708 19.612 90.3804 19.8277 89.5943 20.2664L89.8925 20.8006ZM92.2548 20.2238C93.2753 20.2321 94.0677 20.4128 94.6532 20.7424C95.2311 21.0676 95.6246 21.5471 95.8406 22.195L96.421 22.0016C96.1581 21.213 95.6667 20.6108 94.9533 20.2093C94.2477 19.812 93.3428 19.6208 92.2598 19.612L92.2548 20.2238ZM96.3972 22.2486C96.7413 21.6386 97.2595 21.148 97.9655 20.779L97.6821 20.2368C96.8832 20.6544 96.2727 21.2241 95.8644 21.948L96.3972 22.2486ZM97.9655 20.779C98.6749 20.4082 99.4215 20.2238 100.209 20.2238V19.612C99.3215 19.612 98.4777 19.8209 97.6821 20.2368L97.9655 20.779ZM100.209 20.2238C101.409 20.2238 102.263 20.4582 102.821 20.8801L103.19 20.3922C102.482 19.8564 101.473 19.612 100.209 19.612V20.2238ZM102.825 20.8832C103.391 21.2957 103.774 21.8952 103.965 22.7071L104.56 22.5669C104.341 21.6345 103.886 20.9 103.186 20.389L102.825 20.8832ZM103.966 22.714C104.179 23.533 104.29 24.658 104.29 26.1H104.902C104.902 24.6348 104.79 23.4511 104.559 22.56L103.966 22.714ZM104.29 26.1V32H104.902V26.1H104.29ZM104.596 31.6941H101.8V32.3059H104.596V31.6941ZM102.106 32V26.0744H101.494V32H102.106ZM102.106 26.0744C102.106 24.6824 101.962 23.6303 101.639 22.9651L101.089 23.2324C101.347 23.7643 101.494 24.6959 101.494 26.0744H102.106ZM101.642 22.9716C101.48 22.6172 101.234 22.3415 100.903 22.158C100.577 21.9766 100.186 21.895 99.7477 21.895V22.5068C100.113 22.5068 100.394 22.5749 100.606 22.6928C100.814 22.8085 100.974 22.9817 101.086 23.2259L101.642 22.9716ZM99.7477 21.895C98.5927 21.895 97.6746 22.2941 97.0425 23.1177L97.5278 23.4902C98.0244 22.8431 98.748 22.5068 99.7477 22.5068V21.895ZM97.0418 23.1186C96.4431 23.9044 96.1584 24.9249 96.1584 26.1513H96.7702C96.7702 25.0177 97.0327 24.14 97.5284 23.4893L97.0418 23.1186ZM96.1584 26.1513V32H96.7702V26.1513H96.1584ZM96.4643 31.6941H93.6938V32.3059H96.4643V31.6941ZM93.9997 32V25.6639H93.388V32H93.9997ZM93.9997 25.6639C93.9997 24.7543 93.9657 24.0596 93.8936 23.5909L93.2889 23.6839C93.3536 24.1045 93.388 24.7608 93.388 25.6639H93.9997ZM93.8936 23.5909C93.8153 23.0823 93.5949 22.6609 93.2227 22.3507L92.8311 22.8207C93.0745 23.0235 93.2303 23.3033 93.2889 23.6839L93.8936 23.5909ZM93.2227 22.3507C92.8326 22.0256 92.2485 21.895 91.5391 21.895V22.5068C92.1977 22.5068 92.6055 22.6327 92.8311 22.8207L93.2227 22.3507ZM91.5391 21.895C90.875 21.895 90.2515 22.0954 89.6745 22.4864L90.0176 22.9929C90.5008 22.6655 91.006 22.5068 91.5391 22.5068V21.895ZM89.6706 22.489C89.1135 22.879 88.6636 23.4052 88.3186 24.059L88.8596 24.3445C89.1644 23.767 89.5525 23.3185 90.0214 22.9902L89.6706 22.489ZM88.3171 24.0619C87.986 24.7055 87.8215 25.4036 87.8215 26.1513H88.4332C88.4332 25.4967 88.5765 24.8951 88.8611 24.3417L88.3171 24.0619ZM87.8215 26.1513V32H88.4332V26.1513H87.8215ZM88.1273 31.6941H85.3313V32.3059H88.1273V31.6941ZM85.6372 32V20.2257H85.0254V32H85.6372ZM112.125 32.3591L112.408 32.4766L112.456 32.3611L112.409 32.2451L112.125 32.3591ZM107.251 20.2257V19.9198H106.799L106.968 20.3397L107.251 20.2257ZM110.381 20.2257L110.671 20.1284L110.601 19.9198H110.381V20.2257ZM112.895 27.7161L113.187 27.6255L113.185 27.6188L112.895 27.7161ZM113.459 29.5374L113.167 29.6279L113.459 30.5709L113.751 29.6279L113.459 29.5374ZM114.024 27.7161L113.735 27.6143L113.731 27.6256L114.024 27.7161ZM116.666 20.2257V19.9198H116.449L116.377 20.1239L116.666 20.2257ZM119.693 20.2257L119.977 20.3385L120.143 19.9198H119.693V20.2257ZM112.459 38.4643V38.7702H112.667L112.743 38.5771L112.459 38.4643ZM109.586 38.4643L109.303 38.3468L109.127 38.7702H109.586V38.4643ZM112.409 32.2451L107.535 20.1117L106.968 20.3397L111.842 32.4731L112.409 32.2451ZM107.251 20.5316H110.381V19.9198H107.251V20.5316ZM110.091 20.323L112.605 27.8134L113.185 27.6188L110.671 20.1284L110.091 20.323ZM112.603 27.8066L113.167 29.6279L113.751 29.4469L113.187 27.6256L112.603 27.8066ZM113.751 29.6279L114.316 27.8066L113.731 27.6256L113.167 29.4469L113.751 29.6279ZM114.312 27.8179L116.954 20.3275L116.377 20.1239L113.735 27.6144L114.312 27.8179ZM116.666 20.5316H119.693V19.9198H116.666V20.5316ZM119.408 20.1129L112.175 38.3515L112.743 38.5771L119.977 20.3385L119.408 20.1129ZM112.459 38.1584H109.586V38.7702H112.459V38.1584ZM109.868 38.5818L112.408 32.4766L111.843 32.2416L109.303 38.3468L109.868 38.5818ZM121.164 31.7435L120.947 31.9598L120.953 31.965L121.164 31.7435ZM121.138 29.127L120.922 28.9107L120.922 28.9107L121.138 29.127ZM123.78 29.127L123.559 29.3379L123.564 29.3433L123.569 29.3485L123.78 29.127ZM123.78 31.7435L123.564 31.5272L123.564 31.5272L123.78 31.7435ZM122.472 31.9506C122.035 31.9506 121.675 31.8078 121.375 31.522L120.953 31.965C121.371 32.3632 121.884 32.5624 122.472 32.5624V31.9506ZM121.38 31.5272C121.079 31.2261 120.931 30.8681 120.931 30.4352H120.319C120.319 31.0285 120.53 31.5426 120.948 31.9598L121.38 31.5272ZM120.931 30.4352C120.931 29.9776 121.076 29.6221 121.354 29.3433L120.922 28.9107C120.517 29.3159 120.319 29.8325 120.319 30.4352H120.931ZM121.354 29.3433C121.654 29.0442 122.019 28.8942 122.472 28.8942V28.2824C121.865 28.2824 121.341 28.4914 120.922 28.9107L121.354 29.3433ZM122.472 28.8942C122.925 28.8942 123.279 29.0439 123.559 29.3379L124.002 28.916C123.598 28.4917 123.08 28.2824 122.472 28.2824V28.8942ZM123.569 29.3485C123.863 29.6285 124.013 29.9824 124.013 30.4352H124.625C124.625 29.8278 124.416 29.3095 123.991 28.9055L123.569 29.3485ZM124.013 30.4352C124.013 30.8681 123.865 31.2261 123.564 31.5272L123.997 31.9598C124.414 31.5426 124.625 31.0285 124.625 30.4352H124.013ZM123.564 31.5272C123.285 31.8061 122.93 31.9506 122.472 31.9506V32.5624C123.075 32.5624 123.591 32.365 123.997 31.9598L123.564 31.5272ZM128.83 13.1457V12.8398H128.524V13.1457H128.83ZM138.116 14.6592L137.907 14.8825L137.911 14.8859L138.116 14.6592ZM137.988 23.4066L138.194 23.6325L138.194 23.6325L137.988 23.4066ZM131.729 25.0226V24.7168H131.423V25.0226H131.729ZM131.729 32V32.3059H132.035V32H131.729ZM128.83 32H128.524V32.3059H128.83V32ZM135.962 21.4827L135.734 21.2783L135.734 21.2783L135.962 21.4827ZM131.729 15.6596V15.3537H131.423V15.6596H131.729ZM131.729 22.4831H131.423V22.789H131.729V22.4831ZM128.83 13.4516H132.986V12.8398H128.83V13.4516ZM132.986 13.4516C135.295 13.4516 136.912 13.9503 137.907 14.8825L138.325 14.4359C137.166 13.3501 135.363 12.8398 132.986 12.8398V13.4516ZM137.911 14.8859C138.93 15.8092 139.452 17.0885 139.452 18.7635H140.064C140.064 16.9499 139.492 15.493 138.322 14.4325L137.911 14.8859ZM139.452 18.7635C139.452 20.7197 138.883 22.1757 137.782 23.1807L138.194 23.6325C139.454 22.4826 140.064 20.8433 140.064 18.7635H139.452ZM137.782 23.1807C136.679 24.1874 135.013 24.7168 132.729 24.7168V25.3285C135.097 25.3285 136.937 24.7805 138.194 23.6325L137.782 23.1807ZM132.729 24.7168H131.729V25.3285H132.729V24.7168ZM131.423 25.0226V32H132.035V25.0226H131.423ZM131.729 31.6941H128.83V32.3059H131.729V31.6941ZM129.136 32V13.1457H128.524V32H129.136ZM132.806 22.789C134.342 22.789 135.503 22.4512 136.189 21.687L135.734 21.2783C135.223 21.848 134.281 22.1772 132.806 22.1772V22.789ZM136.189 21.687C136.841 20.9609 137.165 20.0833 137.165 19.0714H136.554C136.554 19.9406 136.279 20.6705 135.734 21.2783L136.189 21.687ZM137.165 19.0714C137.165 17.9999 136.855 17.1006 136.213 16.4018L135.762 16.8157C136.283 17.3824 136.554 18.1248 136.554 19.0714H137.165ZM136.213 16.4018C135.546 15.677 134.467 15.3537 133.063 15.3537V15.9655C134.395 15.9655 135.265 16.275 135.762 16.8157L136.213 16.4018ZM133.063 15.3537H131.729V15.9655H133.063V15.3537ZM131.423 15.6596V22.4831H132.035V15.6596H131.423ZM131.729 22.789H132.806V22.1772H131.729V22.789ZM145.123 31.5126L144.97 31.7776L144.976 31.781L145.123 31.5126ZM142.968 29.3578L142.701 29.5081L142.705 29.5138L142.968 29.3578ZM142.865 22.8422L142.594 22.7014L142.592 22.7054L142.865 22.8422ZM149.894 20.277L150.007 19.993L150.007 19.993L149.894 20.277ZM151.407 21.1748L151.206 21.4051L151.211 21.4098L151.407 21.1748ZM152.228 22.2009L151.944 22.3145L152.534 22.2089L152.228 22.2009ZM152.279 20.2257V19.9198H151.981L151.974 20.2178L152.279 20.2257ZM154.922 20.2257H155.228V19.9198H154.922V20.2257ZM154.922 32V32.3059H155.228V32H154.922ZM152.305 32L151.999 32.0076L152.007 32.3059H152.305V32ZM152.254 29.9222L152.56 29.9146L151.977 29.7916L152.254 29.9222ZM150.663 31.5639L150.821 31.8262L150.825 31.8236L150.663 31.5639ZM150.997 28.9474L151.213 29.1637L151.216 29.1609L150.997 28.9474ZM151.536 24.1248L151.265 24.2679L151.265 24.2679L151.536 24.1248ZM150.279 22.7653L150.119 23.0261L150.119 23.0261L150.279 22.7653ZM145.995 23.3553L146.227 23.5539L146.23 23.5511L145.995 23.3553ZM145.969 28.8961L145.731 29.0886L145.736 29.0947L145.969 28.8961ZM148.073 31.9506C147.062 31.9506 146.13 31.7149 145.269 31.2443L144.976 31.781C145.928 32.3022 146.962 32.5624 148.073 32.5624V31.9506ZM145.275 31.2477C144.434 30.7621 143.753 30.0823 143.231 29.2019L142.705 29.5138C143.277 30.4803 144.033 31.237 144.97 31.7776L145.275 31.2477ZM143.234 29.2076C142.734 28.3196 142.478 27.2785 142.478 26.0744H141.867C141.867 27.3671 142.142 28.5149 142.701 29.508L143.234 29.2076ZM142.478 26.0744C142.478 24.8815 142.702 23.8526 143.139 22.979L142.592 22.7054C142.105 23.6788 141.867 24.8047 141.867 26.0744H142.478ZM143.137 22.983C143.59 22.1091 144.226 21.4341 145.047 20.9511L144.737 20.4238C143.813 20.9669 143.098 21.7284 142.594 22.7014L143.137 22.983ZM145.047 20.9511C145.865 20.47 146.835 20.2238 147.97 20.2238V19.612C146.745 19.612 145.663 19.8788 144.737 20.4238L145.047 20.9511ZM147.97 20.2238C148.617 20.2238 149.22 20.3369 149.78 20.561L150.007 19.993C149.371 19.7383 148.69 19.612 147.97 19.612V20.2238ZM149.78 20.561C150.352 20.7899 150.826 21.0724 151.206 21.405L151.609 20.9446C151.168 20.559 150.632 20.243 150.007 19.993L149.78 20.561ZM151.211 21.4098C151.599 21.733 151.833 22.0361 151.944 22.3145L152.512 22.0873C152.35 21.6817 152.036 21.3007 151.603 20.9398L151.211 21.4098ZM152.534 22.2089L152.585 20.2336L151.974 20.2178L151.922 22.193L152.534 22.2089ZM152.279 20.5316H154.922V19.9198H152.279V20.5316ZM154.616 20.2257V32H155.228V20.2257H154.616ZM154.922 31.6941H152.305V32.3059H154.922V31.6941ZM152.611 31.9924L152.56 29.9146L151.948 29.9297L151.999 32.0076L152.611 31.9924ZM151.977 29.7916C151.719 30.3391 151.238 30.8464 150.502 31.3042L150.825 31.8236C151.628 31.3238 152.208 30.7366 152.53 30.0528L151.977 29.7916ZM150.506 31.3016C149.787 31.7329 148.979 31.9506 148.073 31.9506V32.5624C149.082 32.5624 150 32.3184 150.821 31.8262L150.506 31.3016ZM148.534 30.2537C149.587 30.2537 150.487 29.8901 151.213 29.1637L150.781 28.7311C150.173 29.3386 149.431 29.6419 148.534 29.6419V30.2537ZM151.216 29.1609C151.947 28.4114 152.303 27.4413 152.303 26.2796H151.691C151.691 27.3069 151.381 28.1153 150.778 28.7339L151.216 29.1609ZM152.303 26.2796V26.1H151.691V26.2796H152.303ZM152.303 26.1C152.303 25.3207 152.14 24.6122 151.806 23.9817L151.265 24.2679C151.547 24.8003 151.691 25.4086 151.691 26.1H152.303ZM151.806 23.9817C151.474 23.3548 151.018 22.8597 150.438 22.5045L150.119 23.0261C150.599 23.3207 150.981 23.732 151.265 24.2679L151.806 23.9817ZM150.438 22.5045C149.859 22.1495 149.222 21.972 148.534 21.972V22.5838C149.112 22.5838 149.638 22.7312 150.119 23.0261L150.438 22.5045ZM148.534 21.972C147.366 21.972 146.427 22.3592 145.76 23.1594L146.23 23.5511C146.76 22.9148 147.513 22.5838 148.534 22.5838V21.972ZM145.762 23.1567C145.106 23.9249 144.791 24.9155 144.791 26.1H145.403C145.403 25.0272 145.686 24.188 146.227 23.5539L145.762 23.1567ZM144.791 26.1C144.791 27.2986 145.096 28.3038 145.731 29.0886L146.207 28.7036C145.679 28.0519 145.403 27.193 145.403 26.1H144.791ZM145.736 29.0947C146.405 29.8779 147.353 30.2537 148.534 30.2537V29.6419C147.492 29.6419 146.73 29.3166 146.202 28.6975L145.736 29.0947ZM162.645 32.3591L162.927 32.4766L162.975 32.3611L162.929 32.2451L162.645 32.3591ZM157.771 20.2257V19.9198H157.319L157.487 20.3397L157.771 20.2257ZM160.901 20.2257L161.191 20.1284L161.121 19.9198H160.901V20.2257ZM163.415 27.7161L163.707 27.6255L163.705 27.6188L163.415 27.7161ZM163.979 29.5374L163.687 29.6279L163.979 30.5709L164.271 29.6279L163.979 29.5374ZM164.543 27.7161L164.255 27.6143L164.251 27.6256L164.543 27.7161ZM167.185 20.2257V19.9198H166.969L166.897 20.1239L167.185 20.2257ZM170.212 20.2257L170.497 20.3385L170.663 19.9198H170.212V20.2257ZM162.979 38.4643V38.7702H163.186L163.263 38.5771L162.979 38.4643ZM160.105 38.4643L159.823 38.3468L159.647 38.7702H160.105V38.4643ZM162.929 32.2451L158.055 20.1117L157.487 20.3397L162.361 32.4731L162.929 32.2451ZM157.771 20.5316H160.901V19.9198H157.771V20.5316ZM160.611 20.323L163.125 27.8134L163.705 27.6188L161.191 20.1284L160.611 20.323ZM163.122 27.8066L163.687 29.6279L164.271 29.4469L163.707 27.6256L163.122 27.8066ZM164.271 29.6279L164.835 27.8066L164.251 27.6256L163.687 29.4469L164.271 29.6279ZM164.832 27.8179L167.474 20.3275L166.897 20.1239L164.255 27.6144L164.832 27.8179ZM167.185 20.5316H170.212V19.9198H167.185V20.5316ZM169.928 20.1129L162.694 38.3515L163.263 38.5771L170.497 20.3385L169.928 20.1129ZM162.979 38.1584H160.105V38.7702H162.979V38.1584ZM160.388 38.5818L162.927 32.4766L162.363 32.2416L159.823 38.3468L160.388 38.5818Z" fill="white"/>
</svg>
