<svg width="38" height="38" viewBox="0 0 38 38" fill="none" xmlns="http://www.w3.org/2000/svg">
	<g clip-path="url(#clip0_33_5671)">
		<path d="M34.2891 0H3.71094C1.66144 0 0 1.66144 0 3.71094V34.2891C0 36.3386 1.66144 38 3.71094 38H34.2891C36.3386 38 38 36.3386 38 34.2891V3.71094C38 1.66144 36.3386 0 34.2891 0Z" fill="#3B82F6"/>
		<mask id="mask0_33_5671" style="mask-type:luminance" maskUnits="userSpaceOnUse" x="7" y="9" width="24" height="20">
			<path d="M30.5398 9.20312H7.45776V28.7969H30.5398V9.20312Z" fill="white"/>
		</mask>
		<g mask="url(#mask0_33_5671)">
			<path d="M19.8522 10.872L16.0088 26.391C15.7065 27.7999 14.4758 28.7969 13.0291 28.7969H8.84018C7.95494 28.7969 7.30716 27.9949 7.4799 27.128L11.3449 11.609C11.6256 10.2001 12.8779 9.20312 14.303 9.20312H18.4919C19.3772 9.20312 20.0249 10.0051 19.8522 10.872Z" fill="white"/>
			<path d="M30.5184 10.0918L28.9205 17.5478C28.4455 19.8887 26.3727 21.5576 23.9975 21.5576H20.6292C20.1757 21.5576 19.8302 21.1241 19.9166 20.6689L21.4928 13.2129C21.9895 10.872 24.0623 9.20312 26.4374 9.20312H29.8058C30.2809 9.20312 30.6263 9.6366 30.5184 10.0918Z" fill="white"/>
		</g>
	</g>
	<defs>
		<clipPath id="clip0_33_5671">
			<rect width="38" height="38" fill="white"/>
		</clipPath>
	</defs>
</svg>
